<?xml version="1.0" standalone="no"?>
<!DOCTYPE svg PUBLIC "-//W3C//DTD SVG 20010904//EN"
 "http://www.w3.org/TR/2001/REC-SVG-20010904/DTD/svg10.dtd">
<svg version="1.0" xmlns="http://www.w3.org/2000/svg"
 width="478.000000pt" height="261.000000pt" viewBox="0 0 478.000000 261.000000"
 preserveAspectRatio="xMidYMid meet">

<g transform="translate(0.000000,261.000000) scale(0.100000,-0.100000)"
fill="#000000" stroke="none">
<path d="M2733 2557 c-59 -49 -63 -55 -63 -95 l0 -44 63 56 c34 31 67 56 72
56 6 0 67 -29 135 -65 69 -35 129 -65 133 -65 5 0 7 14 5 32 -3 30 -12 36
-138 105 -74 40 -137 73 -140 73 -3 0 -33 -24 -67 -53z"/>
<path d="M2798 2329 l-3 -152 -42 55 c-40 53 -45 56 -110 71 -37 9 -198 48
-358 87 -178 43 -296 68 -306 63 -9 -4 -81 -71 -160 -147 l-144 -139 164 123
c90 67 170 123 177 124 8 0 196 -163 419 -364 307 -277 400 -366 387 -371 -9
-4 -51 -12 -92 -19 -68 -11 -83 -18 -161 -76 -48 -35 -89 -64 -93 -64 -3 0
-76 56 -161 125 -85 69 -158 125 -162 125 -5 0 -204 47 -443 105 -239 58 -531
128 -647 156 l-213 51 -37 -33 c-21 -18 -154 -138 -295 -267 -243 -221 -312
-289 -215 -210 23 19 165 130 315 248 l273 212 72 -68 c188 -179 947 -928 947
-934 0 -4 -38 -38 -84 -76 -47 -38 -85 -72 -85 -76 -1 -5 196 -8 437 -9 240 0
433 -2 427 -4 -5 -2 -22 -6 -37 -9 l-26 -6 15 -48 16 -49 49 5 c41 4 53 1 73
-18 20 -19 55 -96 55 -122 0 -4 -83 -8 -185 -8 l-185 0 0 -50 0 -50 185 0 185
0 0 -24 c0 -22 -5 -24 -77 -30 -120 -11 -153 -36 -153 -117 0 -30 7 -52 26
-76 44 -58 63 -66 135 -52 74 13 119 2 119 -30 0 -31 -27 -44 -89 -44 -68 1
-130 25 -183 72 -20 17 -40 31 -44 31 -5 -1 -26 -15 -47 -34 l-39 -32 42 -38
c66 -60 156 -97 248 -103 97 -7 156 9 199 52 29 29 33 39 33 88 0 100 -56 140
-194 136 -81 -2 -81 -2 -84 24 l-3 26 118 3 118 3 3 73 3 72 154 0 155 0 0
-37 c0 -21 -9 -53 -20 -71 -21 -33 -21 -34 -47 -17 -35 23 -87 23 -113 0 -29
-27 -26 -73 11 -129 29 -43 216 -226 240 -235 13 -4 79 58 79 73 0 6 -18 24
-39 40 -22 16 -60 50 -86 76 l-47 48 33 17 c79 40 109 88 109 175 l0 60 65 0
65 0 0 -240 0 -240 65 0 65 0 0 240 0 240 45 0 45 0 0 50 0 50 -399 0 -399 0
-6 34 c-9 47 -61 147 -90 175 -13 12 -41 29 -63 36 -37 14 -37 14 52 15 l90 0
135 133 c188 184 771 749 853 826 l67 64 23 -20 c36 -33 577 -454 577 -449 0
2 -124 121 -275 264 l-275 259 -67 -13 c-38 -7 -137 -26 -222 -43 l-155 -29
-62 56 c-35 31 -114 105 -177 165 -107 100 -117 107 -156 107 l-41 0 0 78 0
77 -126 65 c-69 36 -130 66 -135 68 -5 2 -10 -65 -11 -149z"/>
<path d="M1885 2147 c-83 -67 -166 -134 -184 -148 l-33 -26 46 -18 47 -18 87
84 c48 46 112 107 142 136 l55 52 70 -60 c39 -34 138 -117 220 -186 l150 -125
-220 216 c-121 118 -222 215 -225 215 -3 0 -73 -55 -155 -122z"/>
<path d="M1960 2035 c0 -33 2 -35 35 -35 33 0 35 2 35 35 0 33 -2 35 -35 35
-33 0 -35 -2 -35 -35z"/>
<path d="M2050 2035 c0 -33 2 -35 35 -35 33 0 35 2 35 35 0 33 -2 35 -35 35
-33 0 -35 -2 -35 -35z"/>
<path d="M1960 1950 c0 -39 1 -40 35 -40 34 0 35 1 35 40 0 39 -1 40 -35 40
-34 0 -35 -1 -35 -40z"/>
<path d="M2050 1950 c0 -39 1 -40 35 -40 34 0 35 1 35 40 0 39 -1 40 -35 40
-34 0 -35 -1 -35 -40z"/>
<path d="M440 1473 l-441 -378 71 -3 71 -3 128 108 c71 59 242 205 380 323
139 118 258 216 264 217 7 2 117 -85 246 -192 241 -202 292 -241 206 -160 -27
26 -145 141 -261 256 -116 115 -214 209 -217 209 -3 0 -204 -170 -447 -377z"/>
<path d="M3640 1459 c-276 -272 -281 -273 94 30 118 95 140 110 154 99 8 -7
182 -151 385 -320 l370 -308 69 0 c42 0 68 4 66 10 -5 15 -861 740 -873 739
-5 0 -125 -113 -265 -250z"/>
<path d="M690 1270 l0 -90 85 0 86 0 -3 88 -3 87 -82 3 -83 3 0 -91z"/>
<path d="M890 1270 l0 -90 85 0 85 0 0 90 0 90 -85 0 -85 0 0 -90z"/>
<path d="M3770 1180 l0 -90 85 0 85 0 0 90 0 90 -85 0 -85 0 0 -90z"/>
<path d="M3970 1180 l0 -90 85 0 85 0 0 90 0 90 -85 0 -85 0 0 -90z"/>
<path d="M690 1065 l0 -85 85 0 85 0 0 85 0 85 -85 0 -85 0 0 -85z"/>
<path d="M890 1065 l0 -85 85 0 85 0 0 85 0 85 -85 0 -85 0 0 -85z"/>
<path d="M3770 980 l0 -90 85 0 85 0 0 90 0 90 -85 0 -85 0 0 -90z"/>
<path d="M3970 980 l0 -90 85 0 85 0 0 90 0 90 -85 0 -85 0 0 -90z"/>
<path d="M1150 560 c0 -42 3 -50 18 -50 15 0 18 -6 14 -30 -6 -42 4 -72 33
-104 24 -26 25 -31 14 -63 -45 -138 124 -236 289 -168 l32 14 0 -65 0 -64 65
0 65 0 0 240 0 240 149 0 c147 0 149 0 155 -23 7 -31 -3 -68 -26 -93 -19 -21
-19 -21 -56 -3 -70 35 -133 -10 -117 -83 7 -32 158 -197 238 -261 l39 -30 39
39 39 40 -91 78 c-79 69 -88 80 -72 89 96 50 139 114 131 198 l-5 49 38 0 39
0 0 50 0 50 -515 0 -515 0 0 -50z m400 -158 c0 -100 -2 -110 -22 -129 -36 -32
-63 -43 -110 -43 -48 0 -68 13 -68 45 0 31 19 45 62 45 l38 0 0 49 c0 43 -3
50 -24 55 -13 3 -38 3 -55 0 -40 -8 -61 9 -61 52 l0 34 120 0 120 0 0 -108z"/>
</g>
</svg>
